<?xml version="1.0" encoding="UTF-8" standalone="no"?>
<svg
   xmlns:dc="http://purl.org/dc/elements/1.1/"
   xmlns:cc="http://creativecommons.org/ns#"
   xmlns:rdf="http://www.w3.org/1999/02/22-rdf-syntax-ns#"
   xmlns:svg="http://www.w3.org/2000/svg"
   xmlns="http://www.w3.org/2000/svg"
   xmlns:sodipodi="http://sodipodi.sourceforge.net/DTD/sodipodi-0.dtd"
   xmlns:inkscape="http://www.inkscape.org/namespaces/inkscape"
   sodipodi:docname="ut_ndt_swap.svg"
   inkscape:version="1.0 (4035a4fb49, 2020-05-01)"
   id="svg879"
   version="1.1"
   viewBox="0 0 178.76206 78.320984"
   height="78.320984mm"
   width="178.76205mm">
  <defs
     id="defs873" />
  <sodipodi:namedview
     fit-margin-bottom="0"
     fit-margin-right="0"
     fit-margin-left="0"
     fit-margin-top="0"
     inkscape:window-maximized="1"
     inkscape:window-y="-8"
     inkscape:window-x="1912"
     inkscape:window-height="1017"
     inkscape:window-width="1920"
     showgrid="false"
     inkscape:document-rotation="0"
     inkscape:current-layer="layer1"
     inkscape:document-units="mm"
     inkscape:cy="252.45181"
     inkscape:cx="525.20678"
     inkscape:zoom="0.98994949"
     inkscape:pageshadow="2"
     inkscape:pageopacity="0.0"
     borderopacity="1.0"
     bordercolor="#666666"
     pagecolor="#ffffff"
     id="base" />
  <metadata
     id="metadata876">
    <rdf:RDF>
      <cc:Work
         rdf:about="">
        <dc:format>image/svg+xml</dc:format>
        <dc:type
           rdf:resource="http://purl.org/dc/dcmitype/StillImage" />
        <dc:title></dc:title>
      </cc:Work>
    </rdf:RDF>
  </metadata>
  <g
     transform="translate(-12.349455,-12.499194)"
     id="layer1"
     inkscape:groupmode="layer"
     inkscape:label="Layer 1">
    <g
       transform="matrix(0.85004965,0,0,0.85004965,-33.468199,-44.468077)"
       id="g1456">
      <path
         d="m 55.750371,131.84069 c 3.579557,4.49311 9.719674,1.99816 14.53326,2.06722 5.26047,0.434 11.091151,-3.36962 15.853915,0.24743 2.681649,4.44374 5.047334,9.25996 7.548584,13.87943 2.813447,4.82684 9.12479,3.84965 13.7566,3.0493 18.25699,-1.88577 36.5564,-3.45432 54.78228,-5.66608 5.38659,-3.91264 -1.34443,-9.78898 -3.07536,-13.93851 -0.20987,-5.09158 3.32719,-9.80372 1.31841,-15.15279 -0.59633,-9.48658 -0.50043,-19.027287 -1.76541,-28.46376 -5.78908,-0.566288 -7.78973,7.406416 -13.66839,7.814623 -16.41633,7.742437 -34.87272,8.323457 -52.517702,11.093797 -10.67286,1.53364 -21.891306,3.19728 -31.043925,9.28722 -4.619433,3.67281 -7.15377,9.96584 -5.722262,15.78212 z m 43.271356,14.21925 c -2.842105,-2.41843 3.775543,1.51687 0.84217,0.39331 z m 2.569723,-0.25895 c 6.46676,-0.77229 12.95915,-1.33327 19.46369,-1.66214 -6.46578,0.7826 -12.96063,1.31272 -19.46369,1.66214 z m -7.176151,-3.04828 c -1.955518,-4.61094 2.143008,3.72373 0.382618,0.8447 -0.135282,-0.27797 -0.253866,-0.56371 -0.382618,-0.8447 z m 4.411067,1.56653 c -3.869195,-2.19903 -5.570777,-10.86729 1.055429,-7.60438 6.330585,0.91537 12.527275,-1.99905 18.822985,-1.1301 5.94306,-0.086 9.89843,-6.26941 15.99613,-5.69833 5.91434,-0.41807 11.86453,-0.54014 17.77691,-0.0237 0.98647,3.01157 9.02531,9.1773 2.71928,10.26016 -18.61647,1.60709 -37.24473,3.07263 -55.871268,4.55711 l -0.499464,-0.36076 z m 26.638644,-0.457 c 3.44224,-0.55595 11.06342,-1.23675 11.91789,-0.97482 -3.95006,0.55866 -7.93944,0.73831 -11.91789,0.97482 z m 14.57314,-1.29625 c 1.69914,-0.48232 0.73026,0.51553 0,0 z m 1.98274,-0.18797 c 2.08838,-0.83649 3.81546,0.53836 0,0 z m 5.5715,-0.40007 c 3.76003,-0.39423 11.93041,-1.37596 12.92203,-0.98566 -4.26782,0.72122 -8.60724,0.80823 -12.92203,0.98566 z m 15.16796,-0.73054 c 1.57243,-0.95451 0.73172,0.67305 0,0 z m -71.319161,-4.8447 c -2.147843,-4.88499 2.103701,3.47481 0.410917,0.92757 z m 1.447309,-3.66866 c -0.88865,-1.86336 1.021729,0.45055 0,0 z m 12.590492,-0.0355 c 0.64871,-1.10042 0.10375,1.02335 0,0 z m -17.011911,-2.64583 c -1.955518,-4.61094 2.143008,3.72373 0.382618,0.8447 -0.135282,-0.27797 -0.253866,-0.56371 -0.382618,-0.8447 z m 14.216241,-0.70439 c 1.14182,-0.94896 0.38899,0.7186 0,0 z m 2.73619,-0.2821 c 1.87574,-0.20066 1.48974,0.32303 0,0 z m 5.23443,-0.26135 c 1.53839,-0.47319 1.17266,0.54755 0,0 z m 4.40594,-0.26683 c 1.28684,-0.36256 1.65776,0.42103 0,0 z m 4.28272,-0.26458 c 1.28661,-0.36253 1.6581,0.42097 0,0 z M 85.611934,123.9673 c -1.955518,-4.61094 2.143016,3.72375 0.382619,0.8447 -0.135282,-0.27797 -0.253867,-0.56371 -0.382619,-0.8447 z m 41.470756,1.98356 c -2.42642,-0.90953 1.0025,-5.99389 -0.67977,-1.96551 -0.12368,0.34835 2.29107,2.97197 0.67977,1.96551 z m 2.04707,-0.19762 c -4.04583,-0.16475 0.74814,-6.70518 0.78892,-1.41919 0.51039,0.64773 0.0459,1.58844 -0.78892,1.41919 z m -7.05472,-1.12448 c 0.30984,-1.86726 -0.037,2.57785 0,0 z m 27.06388,-2.74689 c -0.062,-1.64097 0.88546,0.54239 0,0 z m -27.28373,-2.28019 c 0.23094,-3.01239 0.01,3.34671 0,0 z m 27.75959,0.39687 c 0.54683,-1.19302 0.26179,1.02386 0,0 z M 82.637824,117.6173 c -1.406447,-3.54141 1.688777,3.07933 0.441141,0.88148 l -0.377621,-0.74434 z m 68.166596,2.06037 c 0.74062,-0.73493 0.86666,1.23834 0,0 z m -19.33702,-0.92841 c 1.88029,-0.27818 1.67795,0.38817 0,0 z m 5.7156,-0.26502 c 1.76186,-0.2444 1.49858,0.31254 0,0 z m -9.84215,-0.45461 c 4.80133,-3.65886 11.01894,-0.63446 16.36743,-2.23797 5.55834,2.38598 9.82729,-2.9164 7.31041,-8.03744 -0.0507,-2.16799 -0.46303,-7.74692 -0.0279,-2.38791 0.79492,4.24095 2.28023,13.04438 -4.42881,12.17014 -5.7865,0.30564 -11.58721,0.55323 -17.36971,0.77497 l -0.93178,-0.0986 z m 2.52584,-0.45642 c -1.28505,-0.93379 -1.71995,0.81438 0,0 z m 3.26896,-0.11309 c -1.72532,-0.83746 -2.68346,0.60438 0,0 z m 2.37158,-0.20622 c -1.48046,-0.96302 -1.71858,1.1075 0,0 z m 6.9102,0.96575 c 1.76186,-0.24443 1.49858,0.31255 0,0 z m 5.22913,-0.26414 c 1.88028,-0.27818 1.67795,0.38817 0,0 z m 3.63372,-0.30698 c -0.062,-1.64086 0.88546,0.54239 0,0 z m -48.29954,-1.61873 c 3.19949,-1.09298 3.27372,1.06407 0,0 z m 18.63217,-1.4552 c 0.26553,-2.60463 -0.004,3.28374 0,0 z m -41.830232,-3.04271 c -1.40645,-3.54142 1.688778,3.07933 0.441142,0.88148 l -0.377622,-0.74434 z m 62.614932,1.67569 c -1.01696,-1.05082 0.93883,-0.73869 0,0 z m 0.79309,-0.35278 c 0.54682,-1.19301 0.26181,1.02388 0,0 z m 1.6655,0 c 0.50849,-1.04093 0.45453,1.03752 0,0 z m -8.38699,-0.43981 c 1.14183,-0.94899 0.38897,0.71864 0,0 z m 1.72499,-0.0893 c 0.72905,-1.34282 0.95736,1.38281 0,0 z m -4.87514,-0.2689 c 0.86673,-0.82685 0.44126,1.21605 0,0 z m 10.06496,0.0882 c 1.47292,-0.87316 -0.11399,0.74247 0,0 z m 1.47218,-0.61301 c 0.50847,-1.04094 0.45455,1.03749 0,0 z m -14.60211,-0.47429 c 1.16244,-1.48631 1.83924,1.36043 0,0 z m -8.88154,-1.3778 c 0.13851,-2.95962 0.12552,2.98074 0,0 z m 17.71388,0.88311 c 1.14186,-0.949 0.38899,0.71864 0,0 z m 5.29392,-0.0435 c 1.34029,-0.65667 1.4837,1.02856 0,0 z m 3.28639,-0.22657 c 1.47291,-0.87316 -0.11402,0.74248 0,0 z m 1.90343,0 c 1.47291,-0.87316 -0.11402,0.74248 0,0 z m -15.74614,-0.29173 c 0.40788,-0.88933 0.83031,0.85839 0,0 z M 80.05,109.00811 c -0.99658,-2.24313 0.766108,0.76622 0,0 z m 49.29622,0.22636 c 1.47288,-0.87316 -0.11398,0.74247 0,0 z m 8.79149,-0.93375 c 0.61033,-4.25081 3.92681,2.24281 0,0 z m 1.95992,-0.43275 c -1.17132,-1.348 -1.90632,1.22152 0,0 z m 0.95171,-0.15947 c 2.41851,-3.18183 1.53034,4.00355 3.3e-4,0.0297 z m 1.90343,0.0861 c -1.28345,-1.19291 -1.62762,1.13173 0,0 z m -14.55826,0.3815 c 1.47293,-0.87316 -0.114,0.74247 0,0 z m 3.7325,-0.0838 c 0.64872,-1.10044 0.10375,1.02334 0,0 z m 1.61055,0.0812 c 1.70064,-1.17588 0.55662,0.78707 0,0 z m 10.16693,-0.61039 c 2.90172,-4.31503 2.87088,4.13209 0,0 z m 1.6655,0.26458 c -1.24158,-0.94272 -1.56766,0.40629 0,0 z m 1.10168,-0.0661 c 1.66159,-3.13683 2.55137,3.266 0,0 z m 1.51554,-0.19843 c -1.52438,-1.73277 -0.0778,1.25827 0,0 z m -70.795809,-1.08464 c -1.367063,-3.32379 1.614896,3.01847 0,0 z m 56.582829,0.89478 c 1.35866,-0.39181 1.13283,0.45802 0,0 z m -12.83718,-2.5883 c 0.26558,-2.60452 -0.004,3.28378 0,0 z m 10.871,0.92604 c 0.97656,-1.48022 0.27526,1.85106 0,0 z m 5.11547,0.26459 c 0.41295,-1.06193 0.5264,1.04601 0,0 z m -4.28272,-0.52917 c 0.64869,-1.10043 0.10376,1.02332 0,0 z m -54.69423,-0.93627 c -0.99652,-2.2431 0.766089,0.76628 0,0 z m 54.0427,0.21997 c 0.67829,-0.25803 2.14708,0.077 0.61121,0.0545 z m -2.08465,-0.35765 c 0.64989,-0.65361 0.19456,1.06686 0,0 z m -51.392622,-0.24897 c -0.449301,-1.07686 1.415222,1.43012 0,0 z m 53.251442,0.0838 c 1.47292,-0.87316 -0.11399,0.74247 0,0 z m 3.25905,-0.0882 c 0.86673,-0.82685 0.44126,1.21605 0,0 z m 14.9362,-1.45089 c 0.28346,-2.34449 -0.0205,3.17359 0,0 z m -20.58941,0.75081 c 1.14181,-0.94895 0.38899,0.71859 0,0 z m 17.42828,-1.14769 c 0.63693,-1.89245 0.35717,1.66972 0,0 z m -37.35482,-0.26458 c 0.50847,-1.04094 0.45455,1.03749 0,0 z m 0.71379,0 c 0.50847,-1.04094 0.45455,1.03749 0,0 z m 32.91408,-0.15008 c 0.0635,-3.041865 1.7347,1.51178 0,0 z m 4.87199,0.23392 c 1.47293,-0.87316 -0.114,0.74247 0,0 z m -31.42148,-0.25907 c 1.14182,-0.94896 0.38899,0.7186 0,0 z m 4.02289,-1.00192 c 0.32375,-1.17455 0.51669,1.46671 0,0 z m 27.26928,0.20004 c 1.70064,-1.175884 0.55662,0.78707 0,0 z m -44.14032,-0.27629 c 2.76108,-0.20631 2.44296,0.29515 0,0 z m 12.0154,-0.264 c 0.86244,-0.16599 2.9833,0.15957 0.88329,0.0715 z m 38.00652,-0.665415 c -1.56456,-1.523832 1.49256,-4.712409 -0.0356,-1.407766 0.003,0.512811 1.48549,3.525181 0.0356,1.407766 z m -26.79585,0.202655 c -0.17178,-2.927887 1.78691,1.32316 0,0 z m 16.15567,0.2093 c 1.70061,-1.175881 0.5566,0.78707 0,0 z m 7.208,-3.553467 c -0.5089,-2.198937 0.52042,-3.977552 0.35047,-0.495615 0.0807,2.787371 -0.37407,4.247682 -0.35047,0.495615 z m -48.7311,3.280842 c 1.76185,-0.244379 1.49859,0.312485 0,0 z m 29.43725,-0.08478 c -0.0427,-2.777473 1.9024,0.963685 0,0 z m 4.32675,0.09749 c -1.20965,-2.023011 1.93325,-0.447221 0,0 z M 110.29705,99.69327 c 1.90312,-0.292413 4.23892,0.293342 1.21363,0.03002 0.0652,-0.08053 -2.01074,0.25572 -1.21363,-0.03002 z m 35.57488,0.01349 c 1.69927,-1.174995 0.55754,0.78599 0,0 z m 1.31895,0.0026 c 1.47286,-0.87319 -0.11394,0.74247 0,0 z m 7.56414,-0.389399 c -0.36671,-7.739126 5.74401,2.829029 0,0 z m -34.88134,-0.752784 c 0.50848,-1.040937 0.45455,1.037491 0,0 z m 10.66219,-0.180741 c 1.47292,-0.87317 -0.11399,0.742463 0,0 z m 1.83147,-0.08816 c 0.86673,-0.826843 0.44127,1.216032 0,0 z m 14.61254,-0.44309 c -1.29754,-2.527606 1.47766,-1.22775 0,0 z m -2.89994,-0.544782 c -1.34655,-2.330092 1.76984,-1.11539 0,0 z m -6.2817,-0.480805 c 0.17336,-2.879381 1.94735,1.770705 0,0 z m 3.17675,0.243783 c -1.25443,-2.453484 2.08994,-0.162936 0,0 z M 53.976716,91.489571 c 0.819862,9.878479 2.735076,21.106509 11.2152,27.428039 8.453292,5.27646 19.082297,1.93337 27.02492,-2.69497 11.391284,-6.39646 21.600534,-15.21347 28.680364,-26.266065 0.89636,-6.701401 -8.42784,-2.940149 -12.31116,-3.735016 -5.9911,0.367028 -12.359298,-0.815089 -17.930985,1.852784 -8.299999,2.537166 -16.965922,3.579533 -25.46102,5.250658 -3.765279,0.593184 -8.356375,0.84119 -11.215913,2.500702 -0.287896,-1.436228 0.337745,-2.899974 -0.0014,-4.336132 z m 66.684474,3.770312 c 0.26565,-2.604413 -0.004,3.284245 0,0 z m 7.77793,0.286632 c 0.50312,-1.368578 0.64329,1.036451 0,0 z m 1.52594,0.132292 c 2.28678,-1.826851 3.16187,1.111815 0,0 z m -3.66366,-0.204871 c 0.29624,-1.19783 1.33217,0.494697 0,0 z m 13.98955,-0.262502 c 1.47292,-0.873171 -0.11399,0.742467 0,0 z m 3.03272,-0.224549 c -0.88525,-1.948914 1.54317,1.074509 0,0 z m 1.01207,0.224549 c 1.47292,-0.873171 -0.11399,0.742467 0,0 z m 1.71011,-0.08384 c 0.50847,-1.040941 0.45455,1.037489 0,0 z m 1.78446,0 c 0.41297,-1.061915 0.52638,1.046015 0,0 z m 7.85334,-0.261553 c 0.53082,-0.676402 0.51827,1.306033 0,0 z m -13.85651,-0.186385 c 1.69928,-1.174998 0.55753,0.786002 0,0 z m -6.18615,-0.79375 c 1.69928,-1.174998 0.55753,0.786002 0,0 z M 120.4838,93.088601 c 0.0817,-1.062386 0.5043,1.443884 0,0 z m -16.9543,-0.275269 c 2.24007,-0.213526 6.36631,0.192294 1.79951,0.06603 -0.57261,-0.122914 -1.25713,0.257909 -1.79951,-0.06603 z m 51.31971,-1.621298 c 1.58363,-1.957055 2.38152,1.26198 0,0 z m -1.90343,-0.414333 c 0.22105,-2.270231 0.47311,1.391268 0,0 z M 85.567322,90.449053 c 1.472884,-0.873185 -0.113963,0.742471 0,0 z m 1.189644,-0.264583 c 1.472887,-0.873183 -0.113968,0.742472 0,0 z m 1.298266,-0.267197 c 1.699281,-1.175012 0.557495,0.786008 0,0 z m 1.30408,-0.256458 c 1.141791,-0.948848 0.389042,0.71858 0,0 z m 1.204515,-0.270095 c 1.472887,-0.873183 -0.113968,0.742472 0,0 z m 65.055123,-0.0065 c -0.9958,-1.886005 2.2154,1.253814 0,0 z M 91.862092,88.594357 c 1.699271,-1.175005 0.5575,0.786002 0,0 z m 1.482528,-0.237166 c 1.224319,-0.839792 1.962918,0.02816 0,0 z"
         style="fill:#fefefe;stroke-width:0.250902"
         id="path1462" />
      <path
         d="m 103.04022,137.02116 c 0.59747,-2.10442 1.99209,1.37775 0,0 z m 4.04479,-0.27167 c 1.57244,-0.95455 0.73175,0.67304 0,0 z m -12.099771,-0.49951 c -3.809581,-5.03055 -1.409702,-11.75172 -2.543422,-17.53212 -0.493016,-9.78215 -1.136341,-19.561663 -1.229236,-29.358862 3.45175,-5.03646 10.140759,-2.504307 15.191799,-3.040162 16.27648,-0.311851 32.57506,-0.493106 48.84227,0.0089 5.77836,1.159689 -2.98357,-0.644221 -5.01387,-0.06059 -13.57288,0.312196 -27.16965,0.01501 -40.75285,0.269821 -4.34417,0.543005 -9.80611,-0.851492 -13.421935,1.029825 -2.164019,5.546862 0.353615,11.608107 -0.217675,17.393368 0.408035,9.44749 0.688676,18.91093 1.688513,28.31997 3.603207,4.88946 9.966837,0.96392 14.834487,1.46598 6.01834,0.29502 12.06618,-0.33475 16.81389,-4.29673 4.84217,-2.34499 10.28409,-1.17022 15.43641,-1.85681 5.08267,-0.24866 10.20308,-0.39944 15.20094,-1.44298 -3.29725,2.82864 -7.6265,1.15774 -11.41994,1.57992 -6.08164,0.52178 -12.16991,0.98787 -18.26948,1.23907 -3.91196,3.35127 -8.46881,6.19208 -13.81579,5.15268 -7.10466,0.37573 -14.21139,1.1248 -21.324111,1.12869 z m -2.40936,-47.645819 c -1.203364,-0.837898 -0.661967,0.652508 0,0 z m 2.408277,-0.617784 c -0.791563,-0.609073 -2.155372,1.07149 -0.672038,0.354858 z m 4.858894,46.912673 c 1.47291,-0.87316 -0.113984,0.74247 0,0 z m -0.937454,-0.54686 c -0.352419,-1.09838 1.567424,2.36448 0,0 z m 4.372554,0.28063 c 1.57244,-0.95455 0.73173,0.67308 0,0 z m -38.128093,-0.41609 c 1.815679,-1.3014 2.640804,1.83662 0,0 z m 3.628414,0.15151 c 1.572439,-0.95447 0.731733,0.67303 0,0 z m 37.833949,-0.007 c 1.35866,-0.39181 1.13283,0.45802 0,0 z m -49.22167,-0.33405 c -3.772727,-5.14482 -1.17837,-11.78799 -2.436142,-17.57726 -0.354146,-6.71259 -0.897254,-13.43185 -0.635382,-20.158449 1.629463,-3.551954 4.803516,-0.773355 2.807315,1.891651 0.177152,11.027648 0.858455,22.038098 1.474376,33.047518 1.310506,1.71984 1.982333,4.33059 -1.210167,2.79654 z m 52.78733,0.0698 c 1.53837,-0.47319 1.17268,0.54755 0,0 z m -46.500208,-0.25582 c 1.472904,-0.87316 -0.113992,0.74247 0,0 z m 50.961378,-0.0797 c 1.95573,-0.58259 4.41196,0.16519 1.0124,0.0787 0.36962,-0.13365 -2.24351,0.31981 -1.0124,-0.0787 z m 4.97083,-0.34724 c 2.27214,-0.47796 3.07232,0.44632 0.25074,0.0373 z m -46.890913,-0.10219 c 1.472907,-0.87315 -0.113985,0.74247 0,0 z m 3.435097,-0.26623 c 1.572463,-0.9546 0.731716,0.67314 0,0 z m 47.940206,-0.009 c 1.64502,-1.65127 4.0694,-3.62458 1.36567,-0.58014 0.35233,-0.35049 -2.07886,1.28614 -1.36567,0.58014 z m -43.65296,-0.25674 c 1.700622,-1.17588 0.55661,0.78707 0,0 z m 4.044789,-0.26458 c 1.700615,-1.17588 0.556615,0.78707 0,0 z m 18.082591,-3.70417 c 1.70062,-1.17586 0.55661,0.78706 0,0 z m 27.35728,-0.27073 c 1.53834,-0.47319 1.17269,0.54755 0,0 z m -20.10498,-0.2618 c 1.69904,-0.48232 0.7303,0.51554 0,0 z m 8.34238,0.006 c 1.47293,-0.87316 -0.11403,0.74248 0,0 z m 15.03412,0.10322 c 3.70475,-0.42738 11.87194,-0.98902 12.77632,-0.75813 -4.24745,0.40243 -8.50592,0.77825 -12.77632,0.75813 z m -19.32745,-0.37881 c 1.28697,-0.36256 1.65761,0.42103 0,0 z m 4.28272,-0.26459 c 1.2869,-0.36256 1.65767,0.42103 0,0 z m 3.81747,-0.25357 c 1.47292,-0.87316 -0.11399,0.74247 0,0 z m 27.76332,-0.21696 c 2.3513,-0.67742 2.96898,0.82148 0,0 z m 6.33185,-0.48034 c 2.55412,1.91 5.04997,-6.18143 3.54287,-0.70384 -1.03036,1.36007 -8.56818,1.11495 -3.54287,0.70384 z m -52.19263,-1.16077 c 1.69895,-0.48238 0.73034,0.51561 0,0 z m 2.49825,-0.26024 c 1.57244,-0.95455 0.73175,0.67304 0,0 z m 54.445,-0.76571 c 0.34254,-0.8873 -0.0589,1.31282 0,0 z m -10.3552,-0.69828 c -1.58837,-1.76177 2.9051,-2.95836 0.17898,-1.01923 1.89404,0.20688 2.90377,2.28929 -0.17898,1.01923 z m -32.77331,-0.12187 c 1.47292,-0.87316 -0.11399,0.74247 0,0 z m 4.10819,-2.09026 c 0.34253,-0.88731 -0.0589,1.3128 0,0 z m 37.85168,-0.0441 c -0.89181,-1.99164 -0.0241,-8.01723 0.15482,-2.62357 0.11547,0.86174 0.34482,1.82052 -0.15482,2.62357 z m 0.96713,-1.38906 c -0.0445,-2.29689 0.45042,2.37514 0,0 z m -0.24675,-4.89479 c 0.30554,-1.35816 -0.0631,2.00885 0,0 z m -24.20897,-0.9491 c 0.0926,-2.08276 1.44017,1.16061 0,0 z m 23.06856,-0.54812 c -0.49875,-6.64355 -0.9535,-13.29677 -0.98868,-19.961733 1.00381,6.510743 0.8018,13.118383 1.20993,19.675623 l -0.15771,0.20363 -0.0639,0.0825 z m -10.55801,-1.66911 c -0.80636,-2.54272 1.89954,0.51325 0,0 z m 11.46931,-1.46388 c -0.0445,-2.29691 0.45047,2.37528 0,0 z m -29.76767,-0.88768 c -0.4474,-2.03087 1.77393,0.72259 0,0 z m 0.36792,-0.29131 c -0.43682,-1.01144 -0.1377,1.44079 0,0 z m 3.0406,0.0976 c 0.0926,-2.08275 1.44017,1.16062 0,0 z m 2.61722,0 c 0.0926,-2.08274 1.44017,1.1606 0,0 z m -28.87675,-1.71879 c 0.34253,-0.88729 -0.0589,1.31283 0,0 z m 52.38075,-1.96232 c -0.0445,-2.29691 0.45047,2.37528 0,0 z m -31.5321,-0.44161 c -0.38737,-1.89048 1.61227,-0.49508 0,0 z m -25.86394,-2.24832 c 0.67786,-1.11528 0.96209,1.15842 0,0 z m 57.14929,-1.94028 c 0.30557,-1.358128 -0.0631,2.00891 0,0 z m -12.65661,-0.14791 c 0.64989,-0.65361 0.19456,1.06686 0,0 z m -2.85514,-3.159383 c 0.5468,-1.193029 0.26181,1.023855 0,0 z m 15.28264,-1.5875 c -0.0445,-2.296872 0.45044,2.37533 0,0 z m -32.81427,-0.730804 c 0.58157,-1.746535 0.64554,1.095893 0,0 z m 7.08871,-0.160469 c -0.29493,-1.401703 1.12152,0.811032 0,0 z m 2.35334,-0.283737 c 0.22103,-2.27025 0.47313,1.391276 0,0 z M 61.640607,93.879868 c 1.538324,-0.473257 1.172695,0.547619 0,0 z m 97.551323,-2.059449 c 0.30982,-1.867307 -0.0369,2.577805 0,0 z m -1.24964,-2.260985 c -1.59932,-3.526952 1.11808,0.980848 0.0881,0.117769 z M 96.728495,88.23521 c 2.167793,-1.881706 -1.598801,1.82155 0,0 z M 112.301,87.520985 c 10.97769,-0.03606 21.95567,-0.05546 32.93321,0.02724 -12.10079,0.06537 -24.20194,0.0648 -36.30273,1.6e-5 1.12308,-0.01885 2.24634,-0.02068 3.36952,-0.02726 z"
         style="fill:#1900c8;stroke-width:0.250902"
         id="path1460" />
      <path
         d="m 98.22216,151.65168 c -5.590811,-2.30377 -6.63289,-8.89244 -9.762834,-13.39745 -0.902511,-5.36903 -6.885083,-7.18269 -11.416547,-5.2437 -5.215694,0.69571 -10.631519,2.00504 -15.841646,0.73494 -4.662767,-2.2965 -2.644538,-8.10079 -2.93493,-12.20885 -0.831516,-8.46029 -1.057062,-17.00483 -1.167733,-25.5136 4.789627,-4.08635 11.629454,-1.823948 17.070318,-4.248056 5.744846,-1.156829 11.475254,-2.387296 17.237591,-3.455762 -1.170354,6.119513 0.897955,12.283028 0.461736,18.452828 0.423262,8.79335 0.778054,17.58982 1.195826,26.38342 2.500086,3.85411 2.372311,11.30153 8.368479,11.42298 19.12753,-1.73031 38.29216,-3.02221 57.41802,-4.77307 -0.96871,-3.55676 -8.68532,-8.58617 -3.27006,-11.54243 5.72558,1.14687 5.21354,8.54658 8.68064,12.19225 1.34104,5.72665 -6.83761,6.01339 -10.69812,5.99917 -18.38058,1.75951 -36.77663,4.03432 -55.168392,5.25759 l -0.172351,-0.0603 z m 2.99394,-5.12866 c -3.870976,-2.57314 -2.841924,0.36466 0,0 z m 11.50878,-1.53766 c 1.64337,0.009 9.5246,-0.93117 4.34899,-0.61823 -4.47046,0.3378 -12.66288,0.94517 -14.78398,1.42583 3.49177,-0.0735 6.95007,-0.62637 10.43499,-0.8076 z m -18.071652,-2.23265 c -2.354352,-4.53962 1.948577,4.68754 0,0 z m 37.830682,0.63469 c 2.50756,0.13338 7.47374,-1.07259 2.10823,-0.43967 -1.90389,-0.0876 -10.45481,1.02574 -4.6612,0.63443 0.85094,-0.0656 1.70218,-0.12717 2.55297,-0.19476 z m 8.62492,-0.82141 c -1.69904,-0.48231 -0.73032,0.51554 0,0 z m 3.90245,-0.2582 c -2.47778,-0.58895 -3.19915,0.74458 0,0 z m 10.19483,-0.75095 c 1.95075,0.3219 8.31278,-1.18307 2.97622,-0.56361 -3.6132,0.33671 -7.26986,0.37119 -10.83051,1.13798 2.62114,-0.1482 5.23528,-0.39551 7.85429,-0.57437 z m 8.38699,-0.30943 c -1.57243,-0.9545 -0.73172,0.67305 0,0 z m -71.913982,-4.8447 c -2.202778,-4.76196 0.720876,2.96784 0.63557,1.36684 -0.215857,-0.45375 -0.424639,-0.9108 -0.63557,-1.36684 z m -2.97411,-6.35 c -2.354351,-4.53962 1.948578,4.68754 0,0 z m -2.855146,-6.08542 c -2.354352,-4.53962 1.948581,4.68755 0,0 z m -2.97411,-6.35 c -1.89554,-4.05519 1.316848,3.93407 0.309326,0.70422 z m -2.855145,-6.08541 c -1.895539,-4.05519 1.316848,3.93407 0.309327,0.70422 z m 0.148008,-2.82443 c -1.010846,-1.05082 1.170743,2.40118 0,0 z M 77.59243,106.3799 c -1.552617,-3.10382 1.213762,3.1631 0,0 z m 0.672755,-2.17037 c -1.010847,-1.0508 1.170777,2.40123 0,0 z m 0.803706,-0.086 c -1.181123,-1.63821 -0.01512,0.99424 0,0 z m 6.954462,-13.653599 c -1.314117,-1.854589 -0.664905,0.840384 0,0 z m 1.189644,-0.264583 c -1.314319,-1.855028 -0.665103,0.840425 0,0 z m 1.556021,-0.278281 c -1.203362,-0.8379 -0.661966,0.652514 0,0 z m 1.185116,-0.266262 c -1.141791,-0.948848 -0.389042,0.71858 0,0 z M 104.64624,136.6855 c -2.97405,-1.3528 5.18838,-1.42282 6.61554,-0.98681 -2.15429,0.52448 -4.35808,1.59208 -6.61554,0.98681 z m -6.300105,-0.53837 c 2.514615,-0.53013 2.755805,1.03186 0,0 z m 1.099581,-0.60244 c -4.426956,-4.62787 -1.694188,-11.39822 -2.969755,-16.98706 -0.482803,-9.96796 -1.028698,-19.935288 -1.217894,-29.914464 4.238925,-4.593837 10.651653,-0.624488 15.843523,-2.128795 15.35592,-0.112286 30.71231,-0.122473 46.06846,-0.184612 3.86012,4.111326 1.28423,10.259041 2.53241,15.258291 0.43748,7.87076 0.87038,15.74505 0.96985,23.62885 -2.99468,4.49615 -8.83956,2.40373 -13.29621,2.96118 -6.21586,1.11043 -12.64545,0.64297 -18.90024,1.68396 -2.18669,5.32497 -8.75839,4.53937 -13.45077,4.85027 -5.18568,0.39564 -10.37815,0.74066 -15.579374,0.83238 z m 0.853364,-0.62476 c -1.315673,-1.85781 -0.666384,0.84064 0,0 z m -0.887276,-0.20463 c -0.755137,-1.96448 -0.922903,-0.004 0,0 z m 4.699096,-0.0825 c -1.57243,-0.95453 -0.73172,0.67308 0,0 z m 3.69117,-0.26844 c -1.0825,-0.39475 -1.68225,0.57677 0,0 z m 3.68462,-0.26784 c -1.53839,-0.47319 -1.17266,0.54755 0,0 z m 7.65338,-0.50459 c -2.5316,-0.44828 -4.79521,0.6121 -1.08302,0.12014 0.36239,-0.0245 0.72183,-0.0825 1.08302,-0.12014 z m 2.42217,-0.30806 c -3.61311,-0.0101 2.08857,0.4126 0,0 z m 4.06778,-1.14444 c 1.56408,-1.9595 1.51751,-2.40919 -0.21192,-0.22748 -1.31458,1.06031 -1.76153,1.72938 0.21192,0.22748 z m -19.79414,0.55909 c -0.46622,-0.89839 -0.32582,1.09781 0,0 z m -2.55773,-3.35022 c -1.14182,-0.94895 -0.38899,0.71859 0,0 z m 3.92582,-0.2821 c -1.87574,-0.20066 -1.48973,0.32303 0,0 z m -3.9213,-0.24539 c -1.20348,-0.83769 -0.66193,0.65177 0,0 z m 8.56091,-0.0179 c -1.76186,-0.2444 -1.49857,0.31254 0,0 z m 4.39638,-0.26628 c -1.81565,-0.13086 -1.48787,0.19593 0,0 z m 14.99482,0.004 c -1.5384,-0.47319 -1.17267,0.54755 0,0 z m -20.34291,-0.2618 c -1.69904,-0.48232 -0.7303,0.51554 0,0 z m 9.63612,-0.006 c -1.87575,-0.20067 -1.48974,0.32305 0,0 z m 20.0455,-0.20308 c 2.379,0.019 7.95652,-0.7951 2.49195,-0.42532 -2.48433,0.13657 -9.5096,0.51596 -8.94434,0.75692 2.15506,0.007 4.30661,-0.14588 6.45239,-0.3316 z m -25.27568,-0.0578 c -1.58969,-0.52177 -1.05238,0.55024 0,0 z m 4.28272,-0.26458 c -1.58947,-0.52183 -1.05251,0.55031 0,0 z m 2.84593,-0.23538 c -1.31373,-1.85356 -0.66451,0.84026 0,0 z m 30.2814,-0.32494 c -1.535,-0.50875 -4.11038,0.83307 0,0 z m 6.82748,-0.95253 c 1.42156,-1.73255 -0.3449,-3.88637 -0.0786,-0.78711 -0.9535,2.16818 -7.73029,1.2998 -2.72863,1.61818 0.97991,-0.0152 2.03737,-0.16323 2.80723,-0.83107 z m -32.16167,-0.48091 c -1.17916,-1.13029 0.0122,-5.59639 -1.48185,-2.06573 -0.13284,0.20669 1.98482,3.60642 1.48185,2.06573 z m 2.98421,-0.75398 c 0.67812,-3.73232 -5.18688,-2.94549 -2.44977,0.10225 0.66009,0.58514 1.93379,0.7578 2.44977,-0.10225 z m -25.41423,0.6334 c -1.6989,-0.48238 -0.73037,0.51561 0,0 z m 2.26032,-0.26024 c -1.57244,-0.95455 -0.73175,0.67304 0,0 z m 14.97935,-1.20359 c -0.46273,0.69417 0.42102,1.44141 0,0 z m 30.15065,-0.0881 c -2.87191,-0.88008 -0.21202,-3.12171 -1.48946,-2.22098 -2.18106,0.86782 -0.1713,3.45247 1.48946,2.22098 z m -34.19023,-0.27325 c -1.31563,-1.85773 -0.66635,0.84061 0,0 z m 3.80759,-4.93338 c -0.26733,0.8293 0.0899,2.84251 0.0601,0.8367 z m 27.66345,2.68075 c -0.89459,-0.63944 0.13106,1.70628 0,0 z m 10.34073,-0.2995 c 0.3638,-1.79717 -1.0465,-7.58683 -0.65398,-2.40948 0.17647,0.23059 -0.054,3.76934 0.65398,2.40948 z m -9.98384,-1.25677 c -0.0648,-1.14622 -0.79814,1.26887 0,0 z m 1.54354,-0.27224 c -1.55312,-1.75145 -0.0478,1.20413 0,0 z m -18.3823,-0.97918 c -1.81566,-0.13095 -1.48788,0.19595 0,0 z m 5.59663,-0.26289 c -1.76186,-0.2444 -1.49858,0.31254 0,0 z m 1.47942,-0.61714 c 3.87564,-0.36881 11.06676,1.18757 11.56721,-4.35725 -0.71523,-3.93698 -0.30425,-8.00136 -1.00644,-11.95532 -1.15894,4.30677 3.72449,13.48283 -2.79874,14.1708 -6.18066,0.11603 -12.34816,0.56501 -18.52388,0.80943 -2.50773,3.20969 5.50205,1.47189 7.22021,1.49226 1.1823,-0.15513 2.35223,-0.35121 3.54164,-0.15992 z m -11.91332,-0.29389 c 1.28164,-0.88302 1.74556,0.8546 0,0 z m 2.64142,-0.17605 c 2.42435,-0.66612 2.11627,0.92039 0,0 z m 2.97442,-0.0496 c 1.20546,-0.95674 1.81695,0.67794 0,0 z m 10.05249,0.8721 c -1.76186,-0.24441 -1.49858,0.31255 0,0 z m 5.34809,-0.26627 c -1.81564,-0.13087 -1.48787,0.19594 0,0 z m 2.44408,-0.63189 c -0.89458,-0.63944 0.13106,1.70627 0,0 z m -45.56337,-1.27651 c -3.04729,-1.0824 -3.68592,1.18561 0,0 z m 15.51885,-2.19325 c -0.3778,1.80066 0.30899,1.53608 0,0 z m 15.17397,0.32599 c -1.08573,-2.12207 -1.00513,2.01057 0,0 z m 22.62993,-1.25677 c -0.47233,-6.45486 -0.47868,-12.939317 -1.14465,-19.380729 -0.25059,6.842959 0.35062,13.676959 0.95067,20.486749 0.56777,-0.0553 0.24067,-0.85197 0.19398,-1.10602 z m -16.80067,-0.19844 c -0.46925,-1.79095 -0.23792,1.70051 0,0 z m 0.83275,0.13229 c -0.0649,-1.14622 -0.79816,1.2689 0,0 z m 1.78446,0 c -0.50849,-1.04093 -0.45453,1.03752 0,0 z m -8.26802,-0.43981 c -1.14184,-0.949 -0.38898,0.71864 0,0 z m 1.84394,-0.0893 c -0.72905,-1.34282 -0.95736,1.38281 0,0 z m 10.38283,-0.13229 c 0.51456,-2.83187 -1.84517,0.98902 0,0 z m -15.37933,0.0156 c -0.2606,-0.94902 -0.92701,0.78243 0,0 z m 9.92857,-0.0432 c -1.31325,-1.85231 -0.66397,0.8401 0,0 z m 1.49201,-0.63389 c -0.50847,-1.04094 -0.45455,1.03749 0,0 z m -13.79987,-0.53337 c -1.41845,-1.33783 -1.57888,1.36052 0,0 z m -10.06052,-2.04632 c -0.56643,1.15941 0.53251,1.55483 0,0 z m 18.20958,1.61071 c -1.14186,-0.949 -0.389,0.71864 0,0 z m 6.12667,0.073 c -1.19295,-1.06023 -1.69756,0.83379 0,0 z m 2.31485,-0.32218 c -1.31373,-1.85356 -0.66451,0.84026 0,0 z m 1.90343,0 c -1.31373,-1.85356 -0.66451,0.84026 0,0 z m -18.90578,-0.43546 c 0.23225,-3.69015 -1.99583,1.2553 0,0 z m -0.64875,-0.18015 c -0.2594,-1.54157 0.7879,0.88988 0,0 z m 4.03463,-0.169 c -1.31898,-2.51916 -0.79312,2.34712 0,0 z m 2.63133,-0.35306 c -1.75068,-0.77337 0.30621,1.90818 0,0 z m -7.33538,0.0793 c -1.31384,-1.85377 -0.66457,0.84028 0,0 z m 10.77124,-1.55994 c -2.38744,-3.62091 -2.29962,4.5153 0,0 z m -1.77471,0.14985 c 1.19305,-1.06468 1.44731,1.13574 0,0 z m 4.62985,-0.19714 c -2.76889,-3.74455 -2.19793,4.05082 0,0 z m -1.80284,0.14651 c 1.11823,-1.06969 1.57547,1.05426 0,0 z m -33.96188,-0.0165 c -0.74175,-0.0848 0.97424,1.74649 0,0 z m 21.18663,0.41892 c -1.31299,-1.85182 -0.66379,0.84007 0,0 z m 3.63337,-0.10473 c -0.46623,-0.8984 -0.32584,1.09781 0,0 z m 1.96744,0.091 c -1.20346,-0.83772 -0.66194,0.6518 0,0 z m 11.83243,-0.6202 c -2.90173,-4.31502 -2.87088,4.13209 0,0 z m -1.42758,0.26458 c -1.57377,-0.90821 2.982,0.88031 0,0 z m 4.19476,-0.0661 c -2.42722,-4.72983 -3.16204,3.76712 0,0 z m -1.57754,-0.19843 c 0.79091,-0.71837 0.60126,1.08239 0,0 z m -12.30954,-0.18625 c -1.08249,-0.39468 -1.68224,0.57674 0,0 z m -13.92812,-3.31474 c -0.37777,1.80065 0.30898,1.53608 0,0 z m 11.54556,2.00284 c -0.0162,-2.21448 -1.53122,0.27974 0,0 z m 4.81806,-0.0894 c -0.41295,-1.06192 -0.52639,1.04601 0,0 z m -8.57195,-1.08116 c -1.69401,-0.7696 0.8131,1.90152 0,0 z m -0.3316,0.39765 c 0.3425,-0.88731 -0.0589,1.3127 0,0 z m 4.50186,0.15434 c -0.46621,-0.89839 -0.32584,1.09779 0,0 z m -0.0567,-0.71096 c -1.77589,-0.77791 -0.81438,0.61822 0,0 z m -2.56051,-0.19947 c -0.30022,-1.25612 -0.72507,0.67478 0,0 z m 1.83899,-0.30776 c -1.31325,-1.85231 -0.66397,0.8401 0,0 z m 3.39544,0.0432 c -0.2606,-0.94902 -0.92701,0.78243 0,0 z m 14.44646,-2.19479 c -0.39158,1.53039 0.37975,1.44143 0,0 z m -47.04271,1.20904 c -0.67786,-1.11528 -0.96209,1.15842 0,0 z m 26.94544,0.13345 c -1.14181,-0.94895 -0.38899,0.71859 0,0 z m 17.30932,-1.14769 c -0.63693,-1.89245 -0.35717,1.66972 0,0 z m -37.35482,-0.26458 c -0.50847,-1.04094 -0.45455,1.03749 0,0 z m 0.71379,0 c -0.50847,-1.04094 -0.45455,1.03749 0,0 z M 144.02345,101.61 c -1.1312,-2.296546 -0.7658,2.00624 0,0 z m 4.57518,0.50161 c -1.31351,-1.8531 -0.6643,0.84021 0,0 z m -31.28268,-0.27996 c -1.14182,-0.94895 -0.38899,0.71859 0,0 z m 30.15747,-0.47062 c -0.30022,-1.25612 -0.72507,0.67478 0,0 z m -26.30654,-0.38476 c 0.0609,-1.404685 -0.8878,0.67609 0,0 z m 27.5602,0.0633 c -1.20346,-0.83772 -0.66194,0.6518 0,0 z m -42.35586,-0.2861 c -2.76108,-0.20631 -2.44297,0.29515 0,0 z m 11.77748,-0.264 c -0.86244,-0.16599 -2.98329,0.15957 -0.88329,0.0715 z m 36.24193,-0.502659 c -0.36924,-1.965197 -0.52135,-4.879 -0.91023,-1.252545 0.0463,0.23824 1.37209,2.924914 0.91023,1.252545 z m -26.50559,0.01915 c 0.057,-2.142634 -1.30623,0.91717 0,0 z m 16.08346,0.23986 c -1.20345,-0.837704 -0.66194,0.6518 0,0 z m 6.794,-3.777474 c 0.3346,-2.473877 -0.78803,-2.921191 -0.34692,-0.263283 -0.0879,2.976045 0.64712,3.133326 0.34691,0.263283 z m -47.48435,3.49506 c -1.76185,-0.244368 -1.49858,0.312474 0,0 z m 28.7299,-0.322153 c -0.7346,-2.509291 -1.15366,1.929187 0,0 z m 4.12416,-0.431834 c -1.60439,-1.065107 0.29701,1.887231 0,0 z m -21.90934,0.483956 c -1.90312,-0.292424 -4.23893,0.29336 -1.21363,0.03002 -0.0652,-0.08054 2.01071,0.255766 1.21363,-0.03002 z m 32.36285,0.0233 c -1.20337,-0.837899 -0.66197,0.652505 0,0 z m 1.06119,0.0137 c -1.31441,-1.855179 -0.66514,0.840415 0,0 z m 9.4005,-0.0346 c 1.83701,-3.751491 -4.95056,-2.750506 -1.79455,-0.0044 0.55539,0.276099 1.23819,0.281491 1.79455,0.0044 z M 120.34954,98.5673 c -0.50848,-1.040937 -0.45455,1.037491 0,0 z m 10.64236,-0.159853 c -1.31421,-1.854865 -0.66506,0.840419 0,0 z m 1.96786,0.04318 c -0.26059,-0.949013 -0.92701,0.782407 0,0 z m 11.53955,-0.41249 c -0.0649,-1.146224 -0.79815,1.268841 0,0 z m 2.97411,-0.941656 c -0.7013,-2.630206 -0.19224,3.067909 0,0 z m -2.85514,-0.513552 c -0.60224,-2.65224 -0.38345,2.605259 0,0 z m -5.88414,0.330729 c 0.20128,-3.234554 -2.30167,1.283277 0,0 z m 2.91003,-0.349154 c -1.319,-2.519135 -0.79312,2.347159 0,0 z M 120.7599,94.537137 c -0.37777,1.800663 0.30898,1.536084 0,0 z m 6.40967,1.234247 c -0.051,-3.062596 -1.61003,1.386873 0,0 z m 1.92881,-0.329481 c -0.69983,-1.000249 -0.37744,1.176241 0,0 z m 3.86138,-0.07311 c -1.91941,-1.228266 -4.17638,1.556333 0,0 z m 1.42758,0.03912 c -0.68992,-2.847929 -1.35369,2.030946 0,0 z m 2.02239,-0.147907 c -0.79383,-2.619463 0.0754,2.116574 0,0 z m 4.33725,-0.02756 c -1.31406,-1.854491 -0.66486,0.840356 0,0 z m 3.09032,-0.3432 c -0.55904,-1.496833 -0.68776,0.978202 0,0 z m 0.95447,0.3432 c -1.31403,-1.854466 -0.66489,0.840371 0,0 z m 1.72994,-0.10473 c -0.50847,-1.040941 -0.45455,1.037489 0,0 z m 1.78446,0 c -0.41297,-1.061914 -0.52638,1.046029 0,0 z m 7.97062,-0.103985 c -0.56085,-1.289507 -0.71121,0.621615 0,0 z m -13.73586,-0.334149 c -1.20337,-0.837897 -0.66197,0.652513 0,0 z m -6.18615,-0.79375 c -1.20337,-0.837897 -0.66197,0.652513 0,0 z m -15.73779,-0.955339 c -0.86807,-0.322527 1.15645,1.259873 0,0 z M 109.00186,92.81367 c -2.15087,-0.215323 -6.53514,0.182553 -1.88031,0.06928 0.62503,0.02887 1.26791,0.120773 1.88031,-0.06928 z m 47.40368,-1.672312 c -1.15129,-1.692829 -1.40799,1.72495 0,0 z m -3.1528,-0.511929 c -0.20011,-1.280577 -0.41945,2.167945 0,0 z m 5.05279,-1.256406 c -0.19129,-2.68133 -1.46683,0.05087 0.0179,0.229422 z m -1.89577,-0.206852 c -1.25319,-1.443975 -1.04434,0.78955 0,0 z M 97.359497,87.734076 c -1.450518,0.848696 -0.639422,1.151422 0,0 z m 44.444673,-0.213107 c -10.95752,-0.03549 -21.91533,-0.05615 -32.87269,0.02728 12.10079,0.06478 24.20194,0.06536 36.30273,-1.4e-5 -1.14324,-0.02 -2.28669,-0.01983 -3.43004,-0.02727 z M 114.0986,135.15342 c 1.88026,-0.27816 1.678,0.38817 0,0 z m 3.80686,-0.26458 c 1.88026,-0.27809 1.67797,0.38811 0,0 z m 3.80686,-0.26459 c 1.88026,-0.27809 1.67797,0.38811 0,0 z m 9.0413,-4.7625 c 1.88025,-0.2781 1.67797,0.3881 0,0 z m 4.53021,-0.26537 c 1.28697,-0.36256 1.65761,0.42103 0,0 z m 12.19639,-0.0124 c -2.25239,0.7064 -5.7849,-1.09937 -1.49938,-0.63251 1.76793,-0.88915 9.80192,-0.0234 4.07081,0.67215 -0.85595,-0.039 -1.71484,-0.13188 -2.57143,-0.0396 z m -8.39379,-0.25188 c 1.76186,-0.24441 1.49858,0.31255 0,0 z"
         style="fill:#000000;stroke-width:0.250902"
         id="path1458" />
    </g>
    <g
       inkscape:transform-center-y="42.182853"
       inkscape:transform-center-x="-3.4738817"
       id="g2126"
       transform="matrix(1.3129633,0,0,1.3129633,72.53408,-79.026201)">
      <path
         d="m 63.216509,110.09972 c 0.8666,-0.28491 0.340879,0.94673 0,0 z m -13.030256,-7.37004 c -1.902725,-2.852976 -0.09937,-6.400443 1.894288,-8.670214 2.014167,-3.042079 4.06609,-6.065963 5.844301,-9.255107 -2.688417,1.744051 -5.440206,3.47366 -7.654309,5.820989 -1.739391,-3.135275 -0.362838,-6.892276 -0.684511,-10.272134 -0.456966,-2.193024 -0.648105,-7.63135 2.849483,-5.322943 4.066475,2.711996 8.43704,4.899856 12.650067,7.371937 -4.882549,6.677664 -9.231187,13.724675 -14.050665,20.446502 -0.246993,0.2266 -0.65955,0.13345 -0.848654,-0.11903 z M 80.943592,91.843472 c 0.866622,-0.284891 0.340856,0.946758 0,0 z m -15.35112,-8.773755 c 0.932639,-0.606799 0.03955,1.214338 0,0 z"
         style="fill:#fbe500;stroke-width:0.264583"
         id="path2138" />
      <path
         d="m 69.45846,113.66301 c -1.817368,-1.47816 -4.56517,-1.67827 -5.907533,-3.73575 -0.02396,-2.89326 2.878778,-5.06384 4.031034,-7.67079 1.41877,-2.444049 3.377667,-4.970387 4.579666,-7.286438 -1.834375,1.731082 -4.201581,2.659889 -5.996606,4.457663 -1.885124,1.983155 -3.247593,4.385025 -4.654978,6.691545 -2.644925,2.83215 -5.868241,-0.19578 -8.30962,-1.62116 -2.846753,-1.55166 -0.719717,-4.24219 0.73827,-5.887962 3.614768,-5.036629 6.859743,-10.342814 10.476911,-15.366702 2.191936,-1.444472 4.078136,1.960972 6.311427,2.442232 4.290913,2.157411 8.076587,5.18627 12.423361,7.233674 1.568528,3.156062 -2.358289,5.118606 -3.400562,7.660068 -2.668359,4.36086 -5.876806,8.36908 -8.439862,12.79693 -0.368781,0.61909 -1.313552,0.77174 -1.851508,0.28669 z m -11.098913,-7.10835 c 0.534973,-0.91247 2.922371,-4.24654 0.720428,-2.04076 -0.399974,0.38665 -2.83983,2.72276 -0.720428,2.04076 z M 49.497819,93.785342 c -0.7238,-2.771849 1.970409,-4.653752 4.004591,-5.919644 1.004595,-0.419482 3.510588,-3.460724 3.707284,-1.711365 -2.410429,3.774839 -4.819654,7.560038 -7.372013,11.245297 -1.2196,-0.924475 0.261734,-2.477059 -0.339862,-3.614288 z"
         style="fill:#fbd000;stroke-width:0.264583"
         id="path2136" />
      <path
         d="m 77.584413,118.61981 c -1.758914,-1.81323 -5.264208,-1.69747 -6.060308,-4.42054 0.424171,-3.33718 3.573582,-5.66454 5.004351,-8.64205 2.549514,-3.81872 5.117863,-7.627601 7.855589,-11.314979 1.642584,2.961308 0.106892,6.429249 0.767253,9.598499 0.06396,6.21702 0.08031,12.43631 -0.116079,18.6513 -2.808035,-0.58163 -4.889084,-2.7415 -7.450806,-3.87223 z m -15.768182,-9.06365 c -3.254124,-2.18477 1.115874,-5.18078 2.170949,-7.34117 1.18186,-2.482282 4.256205,-4.642599 5.9259,-5.352632 0.127238,-1.10826 0.785023,0.573389 1.009744,-0.831755 0.793143,-1.331173 1.916322,-1.228362 0.592093,0.137221 -2.979678,4.520296 -5.846271,9.118656 -9.015264,13.511126 -0.241693,0.0129 -0.460311,-0.0305 -0.683422,-0.12279 z m -4.490369,-2.97347 c 0.773719,-0.59734 3.030596,-3.7401 2.653366,-2.7838 -0.721478,0.97323 -0.884351,3.45439 -2.653366,2.7838 z"
         style="fill:#fba300;stroke-width:0.264583"
         id="path2134" />
      <path
         d="m 79.365739,121.24928 c -9.265961,-5.0812 -18.211472,-10.72099 -27.456142,-15.84149 -1.859414,-1.15243 -4.590266,-1.80998 -3.64567,-4.58698 -0.02832,-9.767024 -0.205946,-19.53622 0.05376,-29.301683 4.477316,1.562241 8.179404,4.664989 12.422402,6.713547 8.579531,4.946804 17.148486,9.912044 25.747423,14.825104 0.0482,10.801872 0.09638,21.603752 0.14462,32.405622 -2.419882,-1.40858 -4.843902,-2.81003 -7.266389,-4.21412 z m 5.7473,-12.90678 c -0.0228,-4.82695 -0.0456,-9.65391 -0.0684,-14.480865 C 73.186563,86.995858 61.271183,80.228896 49.458176,73.285421 c 0,9.69891 0,19.397819 0,29.096729 11.794643,6.76385 23.522999,13.64304 35.34995,20.35058 0.678303,-4.77138 0.0935,-9.59766 0.304913,-14.39023 z m 4.826315,-0.54738 c 0.04407,-5.26524 0.08815,-10.530477 0.132218,-15.795715 -0.0044,10.463425 0.233292,20.929225 -0.06387,31.390765 -0.211145,-5.19607 -0.07107,-10.39686 -0.06835,-15.59505 z M 55.11749,120.85823 c -0.707477,-1.57241 0.8661,0.45876 0,0 z m 7.565018,-7.10963 c 0.150998,-1.95447 0.144342,2.13455 0,0 z"
         style="fill:#6d6d6d;stroke-width:0.264583"
         id="path2132" />
      <path
         d="m 69.726945,129.14119 c -4.543606,-2.62876 -9.145542,-5.15874 -13.618779,-7.90754 2.841334,-1.78655 5.090011,2.65866 7.87839,3.14525 1.912234,1.70722 6.052437,2.16972 6.357023,4.85469 -0.131208,0.26721 -0.504303,0.0541 -0.616634,-0.0924 z m 9.680728,-5.39179 c 0.324603,-0.73113 -0.152586,1.58706 0,0 z M 83.589425,91.42924 C 71.929578,84.72513 60.341555,77.894933 48.597436,71.338292 c 1.286871,-2.466738 4.540898,-1.715971 6.456799,-0.47023 9.821602,6.265924 20.13454,11.740681 30.163889,17.671023 2.130771,0.109236 5.141381,3.580769 1.686385,4.297688 -1.239003,0.123981 -2.59656,-0.351112 -3.315084,-1.407533 z"
         style="fill:#474747;stroke-width:0.264583"
         id="path2130" />
      <path
         d="m 70.403574,129.01438 c -2.011715,-3.477 -6.507342,-3.79885 -9.292231,-6.38694 -1.315729,-1.20913 -6.105674,-1.8234 -4.704118,-4.03748 2.438525,-1.56218 6.034677,-2.32894 6.819573,-5.54311 2.971931,-0.57923 5.57456,2.14646 7.605528,3.89117 1.823708,2.37943 4.582849,3.71991 7.184231,5.0632 2.716929,2.53368 -1.478071,4.4201 -3.43608,5.32833 -1.233131,0.83925 -2.576867,1.95171 -4.176903,1.68483 z m 16.104137,-19.88321 c 0.0026,-5.35781 0.0053,-10.715621 0.0079,-16.073432 1.332152,-2.184557 4.96284,-1.080983 3.423845,1.568432 0,9.567 0,19.13401 0,28.70101 -1.217115,2.00871 -4.928943,1.31869 -3.38757,-1.36598 -0.0605,-4.27642 -0.0277,-8.55338 -0.04417,-12.83003 z M 60.50453,123.99494 c -1.344766,-0.92866 1.733129,0.72623 0,0 z m -3.175,-1.85208 c -1.344766,-0.92866 1.733129,0.72623 0,0 z M 87.227446,89.863695 c -1.344774,-0.928651 1.733125,0.726208 0,0 z M 83.52328,87.747028 c -1.344772,-0.928651 1.733127,0.726212 0,0 z"
         style="fill:#303030;stroke-width:0.264583"
         id="path2128" />
    </g>
    <path
       d="m 77.999111,54.912031 c 1.6979,-9.387721 11.2965,-14.94275 20.016699,-16.512541 5.96317,-0.887444 12.33951,-0.965029 18.10294,0.768942 6.25369,2.964657 7.78118,-4.767699 10.08481,-8.30883 6.33412,-0.399848 6.93197,9.591512 11.31934,13.250909 3.13986,5.417114 7.02704,10.408075 9.83382,16.002528 0.36299,5.536026 -8.68387,3.13256 -12.37593,5.061257 -7.48863,1.537795 -15.04038,2.737458 -22.56323,4.090585 -6.0519,-3.367465 3.84107,-8.749254 0.22846,-12.966625 -3.82214,-3.36804 -9.48556,-3.333867 -14.15463,-5.013401 -6.183309,-1.128422 -12.907329,-0.101277 -18.113129,3.547023 l -1.18394,0.27636 z"
       style="fill:#ffffff;fill-opacity:1;stroke:#000000;stroke-width:4;stroke-miterlimit:4;stroke-dasharray:none;stroke-opacity:1"
       id="path2047" />
  </g>
</svg>
