<svg width="576" height="180" viewBox="0 0 576 180" fill="none" xmlns="http://www.w3.org/2000/svg">
<g clip-path="url(#clip0)">
<path d="M419.808 90V84.41H397.018V61.706H418.002V56.116H397.018V36.25H419.034V30.66H390.31V90H419.808ZM449.383 54.396V48.118C442.847 48.118 438.289 51.042 435.709 56.976H435.537V49.064H429.689V90H435.537V73.058C435.537 64.114 438.805 54.396 449.383 54.396ZM479.606 36.422V31.176C477.284 30.66 474.962 30.402 472.64 30.402C464.126 30.402 459.224 34.874 459.224 43.388V49.064H452.344V53.966H459.224V90H465.072V53.966H476.854V49.064H465.072C465.072 42.012 464.384 35.304 473.672 35.304C475.736 35.304 477.628 35.734 479.606 36.422ZM512.839 90V49.064H506.991V65.92C506.991 72.37 503.637 85.098 495.467 85.098C488.759 85.098 489.447 76.412 489.447 71.768V49.064H483.599V78.304C483.599 84.84 486.867 90.946 494.091 90.946C501.143 90.946 504.927 86.818 506.819 80.54H506.991V90H512.839ZM546.637 54.396V48.118C540.101 48.118 535.543 51.042 532.963 56.976H532.791V49.064H526.943V90H532.791V73.058C532.791 64.114 536.059 54.396 546.637 54.396ZM573.763 53.966V49.064H562.755V35.82L556.907 39.518V49.064H550.199V53.966H556.907V80.368C556.907 88.28 560.605 90.946 568.259 90.946C569.979 90.946 571.699 90.774 573.419 90.516V85.27C571.957 85.786 571.097 86.044 569.463 86.044C564.819 86.044 562.755 83.55 562.755 79.164V53.966H573.763Z" fill="black"/>
<path fill-rule="evenodd" clip-rule="evenodd" d="M357.99 180L177.872 179.998C198.21 122.045 198.261 58.0287 177.868 0L360 0.00211668V180" fill="#003366"/>
<path fill-rule="evenodd" clip-rule="evenodd" d="M337.563 33.2232C339.001 31.6191 338.864 30.3189 337.259 30.3189H329.376C327.773 30.3189 326.968 30.1452 324.386 32.7251L302.371 56.5597L302.311 33.2232C302.311 31.6191 301.01 30.3189 299.404 30.3189H294.053C292.448 30.3189 291.145 31.6191 291.145 33.2232L291.143 86.2382C291.143 87.8403 292.444 89.1405 294.049 89.1405H299.425C301.03 89.1405 302.331 87.8403 302.331 86.2382L302.336 72.3757L312.116 61.8145L327.216 86.2382C328.199 87.8403 329.578 89.1405 331.184 89.1405H339.249C340.856 89.1405 341.361 87.8403 340.378 86.2382L319.55 53.5168L337.563 33.2232Z" fill="white"/>
<path fill-rule="evenodd" clip-rule="evenodd" d="M208.431 86.2376C208.431 87.8418 209.732 89.142 211.335 89.142H217.216C218.823 89.142 220.124 87.8418 220.124 86.2376L220.149 33.2247C220.149 31.6206 218.848 30.3203 217.243 30.3203H211.366C209.759 30.3203 208.46 31.6206 208.46 33.2247L208.431 86.2376Z" fill="white"/>
<path fill-rule="evenodd" clip-rule="evenodd" d="M267.332 33.2247C267.332 31.6206 268.633 30.3203 270.238 30.3203H276.048C277.656 30.3203 278.957 31.6206 278.957 33.2247L278.949 86.2397C278.949 87.8418 277.647 89.142 276.042 89.142H270.271C268.666 89.142 267.365 87.8418 267.365 86.2397L267.344 64.402H243.957L243.961 86.2397C243.961 87.8418 242.662 89.142 241.055 89.142H235.246C233.641 89.142 232.34 87.8418 232.34 86.2397L232.342 33.2247C232.342 31.6206 233.643 30.3203 235.248 30.3203H241.075C242.678 30.3203 243.982 31.6206 243.982 33.2247L243.957 54.5518H267.344L267.332 33.2247Z" fill="white"/>
<path fill-rule="evenodd" clip-rule="evenodd" d="M180.433 0L0 0.00211668V180L180.431 179.998C200.802 122.045 200.857 58.0287 180.433 0Z" fill="#CCD7E6"/>
<path d="M163.318 138.953L26.5617 139.173L21.7324 145.538H169.684L163.318 138.953Z" fill="#003366"/>
<path d="M95.9268 42.585L27.878 145.536H19.9756L95.7073 31.6094L95.9268 42.585Z" fill="#003366"/>
<path d="M128.195 92.8566L162.659 145.54H170.342L132.366 88.0273" fill="#003366"/>
<path d="M108.439 51.8037L95.4879 31.8281L93.0732 39.5111L104.488 56.633" fill="#003366"/>
<path d="M91.0977 81.0004L134.781 31.3906H144.659L101.195 81.0004H91.0977Z" fill="#003366"/>
<path d="M91.3164 96.8051L134.999 47.1953H144.658L101.414 96.8051H91.3164Z" fill="#003366"/>
<path d="M91.0977 114.145L134.781 64.5352H144.659L101.195 114.145H91.0977Z" fill="#003366"/>
</g>
<defs>
<clipPath id="clip0">
<rect width="576" height="180" fill="white"/>
</clipPath>
</defs>
</svg>