<?xml version="1.0" encoding="UTF-8" standalone="no"?>
<svg
   xmlns:dc="http://purl.org/dc/elements/1.1/"
   xmlns:cc="http://creativecommons.org/ns#"
   xmlns:rdf="http://www.w3.org/1999/02/22-rdf-syntax-ns#"
   xmlns:svg="http://www.w3.org/2000/svg"
   xmlns="http://www.w3.org/2000/svg"
   xmlns:sodipodi="http://sodipodi.sourceforge.net/DTD/sodipodi-0.dtd"
   xmlns:inkscape="http://www.inkscape.org/namespaces/inkscape"
   inkscape:version="1.0 (4035a4fb49, 2020-05-01)"
   sodipodi:docname="2015_capes.svg"
   id="svg16"
   version="1.1"
   viewBox="0 0 780.00002 170"
   height="170pt"
   width="780pt">
  <metadata
     id="metadata20">
    <rdf:RDF>
      <cc:Work
         rdf:about="">
        <dc:format>image/svg+xml</dc:format>
        <dc:type
           rdf:resource="http://purl.org/dc/dcmitype/StillImage" />
        <dc:title></dc:title>
      </cc:Work>
    </rdf:RDF>
  </metadata>
  <sodipodi:namedview
     inkscape:current-layer="svg16"
     inkscape:window-maximized="1"
     inkscape:window-y="-8"
     inkscape:window-x="1912"
     inkscape:cy="-102.87534"
     inkscape:cx="99.80629"
     inkscape:zoom="0.7387759"
     showgrid="false"
     id="namedview18"
     inkscape:window-height="1017"
     inkscape:window-width="1920"
     inkscape:pageshadow="2"
     inkscape:pageopacity="0"
     guidetolerance="10"
     gridtolerance="10"
     objecttolerance="10"
     borderopacity="1"
     bordercolor="#666666"
     pagecolor="#ffffff" />
  <defs
     id="defs5">
    <clipPath
       id="clip1">
      <path
         id="path2"
         d="m 37,180 h 190 v 22.80078 H 37 Z m 0,0" />
    </clipPath>
  </defs>
  <g
     transform="translate(517.768,2.5889984)"
     id="g40">
    <path
       id="path7"
       d="m 128.11169,46.359511 1.14191,-0.321283 c 10.41652,-2.922505 21.24334,-4.668269 32.03146,-5.384379 18.40599,-1.227067 38.34482,0.456763 55.89148,6.36371 14.44995,4.861811 29.36441,13.420303 36.49456,27.494784 3.9057,7.703032 4.93148,16.153141 3.68893,24.653569 -0.89804,6.232108 -2.94186,12.111948 -6.36757,17.415048 -6.29404,9.75845 -16.26154,16.08346 -27.09997,20.26399 -5.6863,5.03601 -12.58806,8.88752 -19.5053,11.9068 -10.50554,4.58311 -21.93623,7.68754 -33.13465,10.02942 -15.46413,3.23605 -31.33468,5.17923 -47.0659,6.51081 l -0.0658,0.004 h -0.0619 C 104.03488,165.31967 80.101292,163.53135 61.52886,155.418 49.831094,150.30845 39.364262,142.16415 35.729516,129.42125 35.501134,128.62772 35.307591,127.83032 35.141143,127.03292 21.856331,121.85695 7.2089607,113.61587 2.5523042,100.20718 0.60912745,94.606028 0.64396585,88.761015 2.010383,83.032129 l 0.023226,-0.104514 0.038707,-0.09677 C 3.7135637,78.588371 5.9586687,74.655567 8.811499,71.113721 19.669287,57.619869 37.579801,51.840662 54.065834,49.11944 64.296542,47.431741 74.786598,46.769823 85.160529,46.634342 110.41021,28.019331 140.90879,14.235165 170.819,7.7592004 180.99166,5.5566751 191.35009,4.1321954 201.75112,3.6444651 l 0.91353,-0.042575 c 0.51095,-0.9406212 1.50964,-1.5793151 2.65541,-1.5793151 1.66836,0 3.02315,1.354804 3.02315,3.0231495 0,1.6683444 -1.35479,3.0231484 -3.02315,3.0231484 -1.06062,0 -1.99736,-0.5457919 -2.53543,-1.3741596 l -0.89028,0.042585 c -10.22684,0.4799878 -20.41497,1.8812424 -30.42117,4.0489307 -28.118,6.088876 -56.79339,18.742749 -80.982464,35.821025 11.237134,0.03871 22.493624,0.642565 33.688194,1.540606 l 0.0929,0.0078 0.55352,0.08129 c 0.0426,-1.033521 1.49416,-1.865759 3.28637,-1.877371 z m 3.29025,2.299296 c -0.0619,0.178059 -0.16258,0.344508 -0.30193,0.503213 11.63584,1.792213 23.24845,4.04893 34.61719,7.029498 10.97779,2.876057 22.00202,6.495321 32.25982,11.384228 14.89898,7.099175 29.65087,17.678261 35.37588,33.850754 1.98577,5.61277 2.7251,11.53132 2.4193,17.46923 l -0.008,0.19742 -0.0619,0.1858 c -1.37417,4.40505 -3.54571,8.29914 -6.27469,11.74809 7.61014,-3.81281 14.36868,-8.99978 18.9634,-16.12605 3.18186,-4.92761 5.07084,-10.38553 5.90694,-16.180228 1.14965,-7.869477 0.22839,-15.677022 -3.387,-22.807163 -6.73918,-13.300308 -21.09238,-21.374942 -34.7217,-25.961922 -17.15957,-5.775337 -36.69972,-7.408843 -54.69926,-6.208875 -10.12233,0.673533 -20.28335,2.268331 -30.08827,4.916005 z M 80.956765,49.816196 C 72.131183,50.063933 63.251408,50.741335 54.569048,52.173557 38.90751,54.759297 21.554403,60.217222 11.223051,73.053026 8.5947313,76.32004 6.5199455,79.943174 4.998694,83.848881 3.7948536,88.96617 3.7406617,94.184104 5.4786819,99.193008 9.5779323,110.99529 22.595665,118.60155 34.59149,123.47884 c -1.006426,-9.78942 2.016723,-19.74531 6.417902,-28.466372 6.797247,-13.474496 17.58536,-25.710314 28.71411,-35.782317 3.592167,-3.247659 7.343039,-6.386935 11.233263,-9.413955 z M 222.25124,134.15858 c 4.68763,-4.25409 8.45011,-9.38299 10.43974,-15.61896 0.25935,-5.46568 -0.42966,-10.91198 -2.25671,-16.08347 C 225.0073,87.131379 210.74314,77.090343 196.64544,70.370513 186.56571,65.566765 175.71952,62.013306 164.93141,59.187572 151.46853,55.657339 137.665,53.156757 123.88471,51.229064 111.53664,50.241992 99.103402,49.611041 86.708877,49.715554 c -0.166447,0 -0.336765,0 -0.507085,0.0038 -5.036,3.74702 -9.851361,7.691436 -14.399633,11.806171 -10.838435,9.8088 -21.409778,21.762044 -28.028966,34.88042 -4.354728,8.628165 -7.381748,18.661455 -5.895334,28.354105 1.82705,0.68516 3.607649,1.30837 5.303091,1.86964 11.415194,3.79346 23.391665,6.43726 35.221043,8.5585 14.295119,2.55864 28.760567,4.37795 43.202777,5.84888 14.90284,1.2232 29.93731,1.94705 44.89434,1.67609 12.28227,-0.22451 24.79679,-1.11094 36.87777,-3.40638 6.15469,-1.16899 12.65001,-2.79475 18.87436,-5.14824 z m -98.26201,28.04057 c 15.58411,-1.31997 31.31145,-3.24379 46.6285,-6.44887 10.98551,-2.29929 22.22652,-5.33792 32.53077,-9.83588 3.90572,-1.70705 7.83852,-3.69667 11.5352,-6.04629 -3.59991,0.99868 -7.20756,1.81156 -10.73006,2.48122 -12.25516,2.3264 -24.94001,3.23218 -37.40034,3.46056 -15.06155,0.27483 -30.20439,-0.45289 -45.21561,-1.6877 l -0.0309,-0.004 C 106.78329,142.63903 92.232679,140.8081 77.856269,138.23398 65.8798,136.08952 53.763978,133.407 42.205562,129.5671 c -1.161261,-0.38321 -2.353489,-0.79353 -3.565071,-1.23093 0.02323,0.0773 0.04259,0.15483 0.06581,0.23225 3.367656,11.81003 13.249987,19.28854 24.065196,24.01101 18.115668,7.91206 41.681523,9.63459 61.217793,9.6191 z m 0,0"
       style="fill:#009cde;fill-opacity:1;fill-rule:evenodd;stroke:none;stroke-width:0.990939" />
    <path
       id="path9"
       d="m 130.96841,79.93156 c 10.25779,0 18.57629,8.322372 18.57629,18.580173 0,10.257807 -8.3185,18.576307 -18.57629,18.576307 -10.25781,0 -18.57632,-8.3185 -18.57632,-18.576307 0,-10.257801 8.31851,-18.580173 18.57632,-18.580173 z m 0,0"
       style="fill:#008f33;fill-opacity:1;fill-rule:evenodd;stroke:#008f33;stroke-width:0.214044;stroke-linecap:butt;stroke-linejoin:miter;stroke-miterlimit:4;stroke-opacity:1" />
  </g>
  <g
     transform="matrix(2.5990937,0,0,2.5990937,-86.896454,-407.23645)"
     clip-path="url(#clip1)"
     clip-rule="nonzero"
     id="g13">
    <path
       style="fill:#191717;fill-opacity:1;fill-rule:evenodd;stroke:none"
       d="M 53.996094,181.58203 53.875,184.22266 c -0.84375,-0.34375 -1.660156,-0.60547 -2.46875,-0.78125 -0.800781,-0.17188 -1.617187,-0.26172 -2.445312,-0.26172 -2.621094,0 -4.699219,0.76562 -6.238282,2.29687 -1.542968,1.53125 -2.3125,3.59375 -2.3125,6.19141 0,2.63281 0.765625,4.70312 2.300782,6.20703 1.535156,1.5 3.628906,2.25781 6.28125,2.25781 0.839843,0 1.65625,-0.082 2.457031,-0.23828 0.796875,-0.16016 1.582031,-0.39062 2.363281,-0.69922 l 0.08984,2.72656 c -0.753906,0.2461 -1.5625,0.4375 -2.421875,0.5625 -0.863281,0.12891 -1.769531,0.19532 -2.734375,0.19532 -3.574219,0 -6.386719,-0.97266 -8.449219,-2.91016 -2.0625,-1.9375 -3.09375,-4.58594 -3.09375,-7.93359 0,-3.38282 1.054688,-6.08203 3.15625,-8.08985 2.101563,-2.0039 4.929688,-3.00781 8.480469,-3.00781 0.949219,0 1.859375,0.0703 2.726562,0.21094 0.863282,0.13672 1.671875,0.34765 2.429688,0.63281 z m 40.175781,1.89063 -4.328125,11.09765 h 8.519531 z M 92.375,180.80078 h 3.714844 l 8.550786,21.8125 h -3.30079 l -2.101559,-5.59766 H 88.859375 l -2.101562,5.59766 h -3.085938 z m 43.60156,2.37891 v 8.15625 h 1.98047 c 1.61719,0 2.85547,-0.35938 3.71875,-1.07422 0.86719,-0.71875 1.30078,-1.7461 1.30078,-3.08985 0,-1.2539 -0.39844,-2.23437 -1.19922,-2.9375 -0.79687,-0.70312 -1.92968,-1.05468 -3.39062,-1.05468 z m -3.05469,-2.37891 h 5.4336 c 2.59765,0 4.54687,0.54297 5.84765,1.61719 1.29688,1.07422 1.94922,2.67969 1.94922,4.83594 0,2.04296 -0.6914,3.6289 -2.08203,4.76171 -1.38281,1.13282 -3.34375,1.69532 -5.86719,1.69532 h -2.22656 v 8.90234 h -3.05469 z m 40.9961,0 h 11.8125 v 2.34766 h -8.75781 v 6.92187 h 8.28125 v 2.45703 h -8.28125 v 7.57422 h 9.04296 v 2.51172 h -12.09765 z m 52.10547,0.57422 -0.3086,2.67187 c -0.67578,-0.33203 -1.36718,-0.57812 -2.07812,-0.73828 -0.70703,-0.16406 -1.45703,-0.24609 -2.23438,-0.24609 -1.32031,0 -2.35156,0.24609 -3.09765,0.73828 -0.73828,0.48438 -1.10938,1.16016 -1.10938,2.01953 0,0.67578 0.25,1.28906 0.75391,1.84766 0.5,0.54687 1.58203,1.28125 3.23828,2.19531 2.16016,1.18359 3.64844,2.26172 4.46875,3.23828 0.82031,0.96875 1.22656,2.07813 1.22656,3.32422 0,1.85547 -0.67578,3.375 -2.03125,4.55859 -1.35937,1.19141 -3.09765,1.78125 -5.23047,1.78125 -1.03125,0 -2.01562,-0.082 -2.96093,-0.24609 -0.94141,-0.16016 -1.82422,-0.40234 -2.64063,-0.71484 l 0.30469,-2.9375 c 0.90234,0.47265 1.76953,0.82031 2.60937,1.04297 0.84375,0.22656 1.66016,0.34375 2.45703,0.34375 1.27735,0 2.3125,-0.28907 3.08594,-0.86329 0.78125,-0.57031 1.16797,-1.32812 1.16797,-2.27343 0,-1.46094 -1.52734,-3.0586 -4.58984,-4.79688 -0.51172,-0.28906 -0.89844,-0.51562 -1.16797,-0.67578 -1.16797,-0.67578 -2.08594,-1.5 -2.75,-2.47266 -0.66406,-0.97656 -0.9961,-1.97265 -0.9961,-2.99218 0,-1.70313 0.64844,-3.05078 1.94532,-4.04688 1.29297,-1 3.05468,-1.49609 5.28515,-1.49609 0.82813,0 1.63672,0.0625 2.41016,0.17969 0.78125,0.1289 1.52344,0.3125 2.24219,0.55859 z m 0,0"
       id="path11" />
  </g>
</svg>
