<?xml version="1.0" encoding="UTF-8" standalone="no"?>
<svg
   xmlns:dc="http://purl.org/dc/elements/1.1/"
   xmlns:cc="http://creativecommons.org/ns#"
   xmlns:rdf="http://www.w3.org/1999/02/22-rdf-syntax-ns#"
   xmlns:svg="http://www.w3.org/2000/svg"
   xmlns="http://www.w3.org/2000/svg"
   xmlns:xlink="http://www.w3.org/1999/xlink"
   xmlns:sodipodi="http://sodipodi.sourceforge.net/DTD/sodipodi-0.dtd"
   xmlns:inkscape="http://www.inkscape.org/namespaces/inkscape"
   inkscape:version="1.0 (4035a4fb49, 2020-05-01)"
   sodipodi:docname="wzl.svg"
   xml:space="preserve"
   enable-background="new 0 0 390.414 110"
   viewBox="0 0 390.414 60"
   height="60"
   width="390.414"
   y="0px"
   x="0px"
   id="Ebene_1"
   version="1.1"><metadata
   id="metadata77"><rdf:RDF><cc:Work
       rdf:about=""><dc:format>image/svg+xml</dc:format><dc:type
         rdf:resource="http://purl.org/dc/dcmitype/StillImage" /><dc:title></dc:title></cc:Work></rdf:RDF></metadata><defs
   id="defs75" /><sodipodi:namedview
   inkscape:current-layer="Ebene_1"
   inkscape:window-maximized="1"
   inkscape:window-y="-8"
   inkscape:window-x="1912"
   inkscape:cy="55"
   inkscape:cx="195.207"
   inkscape:zoom="2.9122931"
   showgrid="false"
   id="namedview73"
   inkscape:window-height="1017"
   inkscape:window-width="1920"
   inkscape:pageshadow="2"
   inkscape:pageopacity="0"
   guidetolerance="10"
   gridtolerance="10"
   objecttolerance="10"
   borderopacity="1"
   bordercolor="#666666"
   pagecolor="#ffffff" />
<g
   transform="matrix(1.130095,0,0,1.130095,-25.227013,-42.934263)"
   id="g8">
	<defs
   id="defs3"><rect
     height="92.794998"
     width="369.48099"
     y="16.780001"
     x="10.49"
     id="SVGID_1_" /></defs>
	<clipPath
   id="SVGID_2_">
		<use
   height="100%"
   width="100%"
   y="0"
   x="0"
   id="use5"
   overflow="visible"
   xlink:href="#SVGID_1_" />
	</clipPath>
</g>
<g
   transform="matrix(1.130095,0,0,1.130095,-25.227013,-42.934263)"
   id="g16">
	<defs
   id="defs11"><rect
     height="92.794998"
     width="369.48099"
     y="16.780001"
     x="10.49"
     id="SVGID_3_" /></defs>
	<clipPath
   id="SVGID_4_">
		<use
   height="100%"
   width="100%"
   y="0"
   x="0"
   id="use13"
   overflow="visible"
   xlink:href="#SVGID_3_" />
	</clipPath>
</g>
<g
   transform="matrix(1.130095,0,0,1.130095,-25.227013,-42.934263)"
   id="g24">
	<defs
   id="defs19"><rect
     height="92.794998"
     width="369.48099"
     y="16.780001"
     x="10.49"
     id="SVGID_5_" /></defs>
	<clipPath
   id="SVGID_6_">
		<use
   height="100%"
   width="100%"
   y="0"
   x="0"
   id="use21"
   overflow="visible"
   xlink:href="#SVGID_5_" />
	</clipPath>
</g>
<g
   transform="matrix(1.130095,0,0,1.130095,-25.227013,-42.934263)"
   id="g32">
	<defs
   id="defs27"><rect
     height="92.794998"
     width="369.48099"
     y="16.780001"
     x="10.49"
     id="SVGID_7_" /></defs>
	<clipPath
   id="SVGID_8_">
		<use
   height="100%"
   width="100%"
   y="0"
   x="0"
   id="use29"
   overflow="visible"
   xlink:href="#SVGID_7_" />
	</clipPath>
</g>
<path
   style="stroke-width:1.1301"
   id="path34"
   d="m 317.68222,54.470882 h 5.02327 V 43.935007 h 2.68511 c 2.024,0 2.89643,1.187729 2.9665,3.140533 l 0.139,4.779172 c 0.035,0.974142 0.14013,1.916641 0.62833,2.61504 h 5.44141 v -0.209068 c -0.94137,-0.490461 -1.0815,-1.849965 -1.1154,-4.465005 -0.0701,-5.268503 -0.59217,-7.152371 -4.01184,-7.605539 v -0.07007 c 2.82524,-0.59217 4.15197,-2.825237 4.15197,-6.140936 0,-4.257068 -2.5122,-6.420069 -6.62801,-6.420069 h -9.28034 z m 5.02327,-21.209622 h 2.3732 c 2.26697,0 3.48974,1.151566 3.48974,3.4547 0,2.685106 -1.36177,3.731574 -3.76887,3.731574 h -2.09407 z"
   fill="#8ebae5" />
<path
   style="stroke-width:1.1301"
   id="path36"
   d="m 243.61919,29.562459 v 17.37295 c 0,6.66304 3.8717,8.023674 7.95361,8.023674 4.07964,0 7.95473,-1.672541 7.95473,-8.023674 v -17.37295 h -5.02327 v 17.37295 c 0,2.477168 -0.5933,4.326003 -2.93146,4.326003 -2.33817,0 -2.93147,-1.848835 -2.93147,-4.326003 v -17.37295 z"
   fill="#8ebae5" />
<polygon
   transform="matrix(1.130095,0,0,1.130095,-25.227013,-42.934263)"
   id="polygon38"
   points="267.694,86.192 267.694,64.151 263.619,64.151 263.619,79.246 263.558,79.246 258.187,64.151 253.063,64.151 253.063,86.192 257.137,86.192 257.137,70.759 257.198,70.759 262.631,86.192 "
   fill="#8ebae5" />
<rect
   style="stroke-width:1.1301"
   id="rect40"
   height="24.908424"
   width="5.0232725"
   fill="#8ebae5"
   y="29.56246"
   x="278.58432" />
<polygon
   transform="matrix(1.130095,0,0,1.130095,-25.227013,-42.934263)"
   id="polygon42"
   points="281.459,80.451 278.341,64.151 273.587,64.151 278.649,86.192 284.36,86.192 289.422,64.151 284.823,64.151 281.551,80.451 "
   fill="#8ebae5" />
<polygon
   transform="matrix(1.130095,0,0,1.130095,-25.227013,-42.934263)"
   id="polygon44"
   points="301.674,76.622 301.674,72.98 294.264,72.98 294.264,67.794 302.136,67.794 302.136,64.151 289.818,64.151 289.818,86.192 302.444,86.192 302.444,82.551 294.264,82.551 294.264,76.622 "
   fill="#8ebae5" />
<path
   style="stroke-width:1.1301"
   id="path46"
   d="m 334.00644,46.692438 v 1.011435 c 0,4.606267 2.23307,7.2586 7.92084,7.2586 5.44028,0 8.64975,-2.374329 8.64975,-7.642832 0,-3.034305 -0.97641,-4.952076 -4.74414,-6.592974 l -3.87284,-1.672541 c -2.12797,-0.908596 -2.58001,-1.849965 -2.58001,-3.383504 0,-1.464603 0.59217,-2.896433 2.85914,-2.896433 1.91778,0 2.72127,1.360634 2.72127,3.698801 h 4.81421 v -0.698399 c 0,-4.779172 -3.24564,-6.698073 -7.70951,-6.698073 -4.74414,0 -7.70838,2.476038 -7.70838,7.324145 0,4.153099 2.05791,6.003065 6.52178,7.535474 3.3157,1.152697 4.46614,1.990097 4.46614,4.258197 0,2.092936 -1.46687,3.069338 -2.99928,3.069338 -2.65346,0 -3.3157,-1.499636 -3.3157,-3.837802 v -0.732302 h -5.02327 z"
   fill="#8ebae5" />
<rect
   style="stroke-width:1.1301"
   id="rect48"
   height="24.908424"
   width="5.0232725"
   fill="#8ebae5"
   y="29.56246"
   x="351.23361" />
<polygon
   transform="matrix(1.130095,0,0,1.130095,-25.227013,-42.934263)"
   id="polygon50"
   points="342.966,67.794 342.966,86.192 347.412,86.192 347.412,67.794 351.161,67.794 355.316,77.519 355.316,86.192 359.762,86.192 359.762,77.519 365.473,64.151 360.657,64.151 357.57,72.672 357.508,72.672 354.607,64.151 338.151,64.151 338.151,67.794 "
   fill="#8ebae5" />
<path
   style="stroke-width:1.1301"
   id="path52"
   d="m 199.49011,27.296618 h -0.31869 -8.00446 V 24.477032 2.4627822 2.2785767 h 7.98864 0.017 5.64483 c 3.70219,-0.00113 6.89471,2.3958013 7.93552,5.5724982 0.96397,2.9438971 0.14014,6.1409361 -2.03643,8.4180771 0.28931,0.783156 0.57183,1.396797 0.83853,2.100846 0.6046,1.393407 1.15722,2.786815 1.76295,4.16214 l 1.98106,4.765611 h -0.0509 -8.38982 c 0,0.0045 -0.0689,-0.201157 -0.13448,-0.285914 -0.33564,-0.735692 -0.63851,-1.526759 -0.97301,-2.264711 l -2.03079,-4.816464 c -0.80575,-1.946024 -1.61151,-3.785819 -2.41614,-5.731842 1.00466,-0.02712 1.75617,0.161603 2.72579,-0.284784 0.68258,-0.335638 1.71549,-1.169648 1.74261,-2.767603 -0.0271,-0.792196 -0.24749,-1.3922761 -0.77073,-2.0172187 -0.52662,-0.5797387 -1.28718,-1.0103049 -2.27827,-1.023866 0,0 -3.23433,-0.00113 -3.2332,0 z"
   fill="#00549f" />
<path
   style="stroke-width:1.1301"
   id="path54"
   d="M 286.43397,2.2785767 V 27.297749 h -6.49918 -1.82397 V 17.096381 h -0.77751 -4.98259 -0.0689 v 10.201368 c -1.50981,0 -3.13715,-0.01695 -4.64695,0 h -3.6762 V 8.0669231 h -5.82225 v 0.6034707 1.8115422 8.239522 8.57516 h -0.0667 -8.2576 V 16.926867 16.524553 8.0669231 h -5.87198 v 9.0780519 10.151643 h -8.57403 c -1.49398,-3.606133 -3.07046,-7.248429 -4.53055,-10.83987 -0.16838,-0.754904 -0.33676,-1.510937 -0.55374,-2.248889 v 13.088759 h -8.59325 c -1.70305,-3.959852 -3.33943,-7.840598 -5.03683,-11.859216 -0.58878,-1.392277 -1.0702,-2.524632 -1.67819,-3.972284 l -0.0836,-0.189856 -1.32221,-3.1043702 -1.89291,-4.4322324 c -0.16612,-0.5028923 -0.43508,-0.9571905 -0.60347,-1.4600827 h 8.5729 c 1.76182,4.2785395 3.53946,8.5073553 5.38604,12.7192183 l 0.0508,0.100578 c -0.0667,-0.48707 -0.21811,-1.107493 -0.30287,-1.576482 V 6.054224 c 0.017,-1.1922502 0,-2.5517545 0,-3.7756473 h 8.59099 c 0.10962,0.2723529 0.16838,0.4192652 0.25314,0.6385036 1.00691,2.3652888 1.96297,4.7147562 2.97102,7.0630935 l 2.24889,5.1181992 c -0.052,-0.537925 -0.16839,-1.056638 -0.23619,-1.576482 V 2.2785767 h 0.68822 5.8392 21.14295 6.00646 v 1.5606611 7.4676672 h 0.40231 5.42559 V 2.2785767 h 4.34182 z"
   fill="#00549f" />
<path
   style="stroke-width:1.1301"
   id="path56"
   d="m 310.57844,17.870496 2.41841,-11.2489644 h 0.0712 l 2.41841,11.2489644 z m -16.67794,0 2.41728,-11.2489644 h 0.0712 l 2.4184,11.2489644 z M 316.15094,2.2751864 h -6.23812 L 304.69178,21.997603 299.47074,2.2751864 h -6.23812 l -6.62349,25.0214316 h 5.2572 l 1.15496,-5.291104 h 6.66078 l 1.15383,5.291104 h 7.7095 l 1.15496,-5.291104 h 6.65965 l 1.15496,5.291104 h 5.2572 z"
   fill="#8ebae5" />
<path
   style="stroke-width:1.1301"
   id="path58"
   d="m 337.80356,10.814184 c 0,-3.6276049 -0.5221,-8.8961076 -7.70951,-8.8961076 -7.53434,0 -8.47797,5.3724714 -8.47797,12.9429776 0,7.569376 0.94363,12.941847 8.47797,12.941847 6.59298,0 7.91858,-4.63904 7.91858,-10.011511 h -5.02327 c 0,5.372471 -1.3256,6.31384 -3.13828,6.31384 -2.163,0 -3.20947,-1.360634 -3.20947,-8.896107 0,-7.0461418 0.59217,-9.5922458 3.13828,-9.5922458 2.26697,0 3.0004,1.5697019 3.0004,5.1973068 z"
   fill="#8ebae5" />
<polygon
   transform="matrix(1.130095,0,0,1.130095,-25.227013,-42.934263)"
   id="polygon60"
   points="336.441,40.008 331.976,40.008 331.976,48.474 326.766,48.474 326.766,40.008 322.302,40.008 322.302,62.146 326.766,62.146 326.766,52.318 331.976,52.318 331.976,62.146 336.441,62.146 "
   fill="#8ebae5" />
<polygon
   transform="matrix(1.130095,0,0,1.130095,-25.227013,-42.934263)"
   id="polygon62"
   points="349.319,52.533 349.319,48.873 341.875,48.873 341.875,43.663 349.783,43.663 349.783,40.004 337.409,40.004 337.409,62.146 350.094,62.146 350.094,58.488 341.875,58.488 341.875,52.533 "
   fill="#8ebae5" />
<polygon
   transform="matrix(1.130095,0,0,1.130095,-25.227013,-42.934263)"
   id="polygon64"
   points="365.454,62.146 365.454,40.008 361.36,40.008 361.36,55.17 361.299,55.17 355.903,40.008 350.757,40.008 350.757,62.146 354.85,62.146 354.85,46.643 354.911,46.643 360.369,62.146 "
   fill="#8ebae5" />
<rect
   style="stroke-width:1.1301"
   id="rect66"
   height="52.434143"
   width="1.1560872"
   fill="#00549f"
   y="2.2446744"
   x="174.20197" />
<path
   style="stroke-width:1.1301"
   id="path68"
   d="M 35.322345,51.71684 H 56.070888 L 81.530798,5.1829207 H 63.2323 L 50.516471,28.105766 V 5.1829207 H 34.213722 L 21.492243,28.416543 V 5.1829207 H 5.9511766 V 51.71684 H 24.751436 L 35.322345,32.209141 Z m 38.514766,0.02599 H 117.93681 V 35.441213 H 101.03963 L 117.52093,5.1829207 H 84.879269 L 75.631702,22.08349 h 14.592916 z m 47.036809,0 h 23.64498 l 8.89385,-16.069951 H 136.50879 V 5.1829207 h -15.63487 z"
   fill="#ffffff" />
<path
   style="stroke-width:1.1301"
   id="path70"
   d="m 105.98266,32.504096 h 11.95302 V 10.556522 Z M 35.322345,51.71571 H 56.070888 L 81.530798,5.1817906 H 63.2323 L 50.516471,28.105766 V 5.1817906 H 34.213722 L 21.492243,28.415412 V 5.1817906 H 5.9511766 V 51.71571 H 24.751436 L 35.322345,32.210271 Z m 38.515896,0.02825 H 117.93681 V 35.440083 H 101.0385 L 117.5198,5.1829207 H 84.879269 L 75.631702,22.08349 h 14.592916 z m 47.035679,0 h 23.64611 l 8.89385,-16.071081 H 136.50879 V 5.1817906 h -15.63487 z m 25.37629,2.934856 H 68.861303 L 85.24768,25.019477 H 74.024707 L 57.811234,54.651697 H 32.384098 V 43.791485 L 26.499693,54.651697 H 3.0151899 V 2.2458039 H 24.428229 V 16.938168 L 32.473375,2.2458039 H 53.454718 V 16.757353 L 61.503255,2.2458039 H 139.44703 V 32.736896 h 18.94831 z"
   fill="#00549f" />
</svg>
